<?xml version="1.0" encoding="UTF-8"?>
<svg width="40px" height="40px" viewBox="0 0 400 400" version="1.1" xmlns="http://www.w3.org/2000/svg"
    xmlns:xlink="http://www.w3.org/1999/xlink">
    <title>Social Media Square Transparent</title>
    <g id="Social-Media-Square-Transparent" stroke="none" stroke-width="1" fill="none" fill-rule="evenodd">
        <g id="Weird-Ghosts-Logo-Copy-2" transform="translate(15, 71)" fill="#E33F3E">
            <path
                d="M134.104932,114.865627 C134.598293,111.562801 134.07497,108.114142 133.85126,104.739426 C133.639534,103.059257 133.335927,101.377034 133.130193,99.6968656 C133.076263,98.8588351 133.497717,98.0249127 133.443787,97.1868823 C133.108221,95.5395773 132.766663,93.8737865 132.664795,92.1689697 C132.95442,89.6630943 132.590891,87.161327 132.215377,84.6739377 C132.407129,82.9444729 132.359191,81.4162998 132.029617,79.701213 C131.987671,78.8734525 132.303263,78.051854 132.263315,77.2261476 C131.921757,75.2892292 131.923754,74.1923953 132.175428,72.2801248 C132.157452,70.2856946 131.883806,69.1744826 131.426398,67.3361561 C131.622144,64.8877927 131.622144,62.4168353 131.306553,59.9746339 C131.526268,58.3684089 131.730005,56.7560219 131.680069,55.102555 C131.326527,52.6850015 131.336514,50.2119901 131.062868,47.7841666 C131.062868,46.9769462 131.606165,46.1923196 131.612157,45.3871531 C131.572209,43.7562802 131.354491,42.1336232 131.194698,40.5315062 C131.210677,39.7263397 131.743987,38.9540372 131.763961,38.1509247 C131.785932,37.3478122 131.256617,36.5159437 131.282584,35.7148852 C132.387154,26.3075828 132.137478,16.6312069 133.923167,7.26909241 C134.258733,5.71216332 134.392559,4.14907224 134.408539,2.5674952 C134.526386,1.78903065 135.109631,0.193075639 134.981797,0.0492959078 C134.877931,-0.0698358694 132.922462,0.258803516 132.077555,0.254695524 C129.277179,0.624414832 126.722485,0.345071355 123.976039,0 C123.119148,0 122.220311,0.425177205 121.263549,0.425177205 C120.416645,0.423123209 118.778764,-0.127347762 118.479152,0.0944838233 C118.245454,0.269073497 118.089656,1.73357276 117.911886,2.50382132 C117.29069,4.18399018 117.102933,5.44308982 117.124904,7.20541853 C116.957121,9.60859403 116.465757,11.9542576 116.060282,14.3101912 C115.650812,19.9155468 115.762667,25.5147403 115.287282,31.1488518 C115.483029,32.7776707 115.439086,34.3613017 115.109512,35.9921747 C115.568918,38.4056202 115.005647,40.8313896 114.839861,43.310563 C114.741988,44.1136755 114.184709,44.8736541 114.064864,45.6911446 C113.949014,46.4922031 113.935032,48.4065275 113.919053,48.4085815 C113.903073,47.2316417 113.335807,44.8366822 112.774534,43.4153168 C112.397022,40.9957093 111.326408,38.8040954 110.958883,36.3988659 C109.243104,33.681429 108.969458,30.2984973 107.55329,27.4003088 C106.476683,24.3932584 106.065216,21.1499985 104.543185,18.3771036 C104.321472,16.8201745 104.099759,15.2550295 103.606398,13.7309643 C102.551762,9.9454494 100.89191,6.35917211 100.244748,2.4606874 C100.060986,1.70070882 99.7873396,0.458041143 99.553642,0.277289481 C98.5429499,-0.156103708 96.1200852,0.137617743 94.9016618,0.322477397 C91.597937,0.277289481 88.7935659,-0.0985918156 85.4578824,0.404637243 C84.7128465,0.404637243 83.238754,-0.131455754 82.9750952,0.0616198848 C82.7354053,0.238263554 82.4457801,1.72330278 82.2580231,2.49765933 C82.3139507,5.73886527 81.069561,8.78904957 80.6001684,11.9871216 C80.6620883,13.6015626 80.5761994,15.1831396 80.2825794,16.7852566 C80.2266517,17.5822071 80.5522304,18.3853196 80.5062899,19.1884321 C80.4623467,19.9853826 79.9749774,20.7843871 79.9350291,21.5895536 C80.0728508,24.0214851 80.2745897,26.4636865 79.607453,28.8237281 C79.9050679,31.2371736 79.5635099,33.6567811 79.1959855,36.0702266 C79.2878666,37.7175315 79.112094,39.3073245 78.6966316,40.9135495 C78.7505619,43.0497055 78.08742,46.512743 77.8716991,48.3716095 C77.8716991,48.3716095 77.2185443,46.7099267 77.0267925,45.9396781 C76.8290483,45.1591596 76.8889708,44.3190751 76.6872319,43.5529346 C76.2398108,42.0042215 75.9441934,40.4370224 75.6785371,38.8718773 C75.4588215,38.1016288 74.7077933,37.4956999 74.4840828,36.7398293 C74.2583749,35.9736887 74.4720983,35.0802004 74.2423956,34.3243298 C74.0126928,33.5602432 73.6371787,32.8454526 73.4054786,32.091636 C72.6824142,29.8117003 71.7016833,27.6447343 71.2282959,25.3011247 C70.5591618,23.8263554 70.1736606,22.3105063 69.9599372,20.7289292 C69.2728263,18.4202376 68.0044676,16.4237533 67.453181,14.0719277 C67.2434524,12.4924046 66.9078866,10.9560155 66.3286362,9.45659832 C66.0030575,7.07601677 65.2240656,4.80840501 64.3272261,2.6208991 C64.1514535,1.85065054 64.4171098,0.28345147 64.1854096,0.100645812 C63.9417249,-0.0924298272 62.2099659,0.25674952 61.3670566,0.258803516 C58.5467063,0.349179347 56.0239708,-0.110915793 53.2575506,0.273181489 C51.9172849,0.188967647 49.0290224,0.137617743 48.0223251,0.449825159 C47.954413,0.534039001 48.0462941,1.8711905 48.2320537,2.64143906 C48.9151698,5.73475728 49.5723194,8.88558738 50.7328177,11.8043159 C50.7847505,14.2136534 51.6056882,16.4915352 52.5644475,18.6708251 C52.7601942,20.2503481 53.0657987,21.7867373 53.5891215,23.3005324 C53.8587726,25.0320512 54.3201755,26.2706109 55.0712037,27.792622 C55.2769374,28.5526006 55.1610874,29.409117 55.3668211,30.1711496 C55.5745523,30.9311282 56.1518053,31.578137 56.3595365,32.3381155 C56.8269317,33.8991526 56.9587611,35.4868916 57.0646241,37.0623067 C57.8955489,40.116599 59.0780187,43.0435435 60.1486333,46.001298 C60.3623568,46.7592226 60.1506307,47.6527109 60.368349,48.4106355 C60.5840698,49.1685601 61.2252402,49.7929749 61.4449558,50.5508995 C61.5827775,52.1406925 61.8524286,53.6832436 62.4576454,55.1949848 C62.6773611,55.9529094 62.6973352,56.7745078 62.9170509,57.5324324 C63.1367666,58.292411 63.8278723,58.9003939 64.0495854,59.6583184 C64.269301,60.418297 64.0435931,61.3200013 64.2653062,62.0779259 C64.4870193,62.8379045 65.0522878,63.4869673 65.2740009,64.2469459 C65.7653651,68.1844565 67.630951,71.8138677 68.6636147,75.6527865 C68.9033045,77.3021455 69.3607126,78.7276188 70.0837769,80.212658 C70.3074874,80.9767446 70.247565,81.833261 70.4732729,82.5973475 C71.9074171,85.4770502 72.2549673,88.7387961 73.0459438,91.8506002 C73.6571529,94.2270738 74.8895581,96.2933939 75.470806,98.6801375 C76.2478005,101.007315 76.4595265,103.455679 77.5341359,105.659616 C77.8097793,107.280219 78.2731796,108.826879 78.9103551,110.334512 C79.1340656,111.119138 78.8724042,112.039328 79.0961147,112.823955 C79.3218226,113.608582 79.7193083,114.343912 79.9430188,115.130593 C80.1647319,115.915219 80.2446285,117.48858 80.5082873,117.68371 C80.7559668,117.866516 82.3718758,117.344801 83.1448755,117.346855 C85.6756006,117.424906 88.0265584,117.737114 90.4973611,117.418744 C92.0992882,117.69398 93.6812411,117.928135 95.4010157,117.893218 C96.1740154,117.915812 97.8917925,118.073969 98.0555806,117.913758 C98.1794203,117.794626 97.9956581,116.044621 97.951715,115.202483 C97.3644749,111.049302 96.855134,106.863258 96.8970797,102.65462 C96.5635113,101.019639 96.1740154,99.3805502 95.94631,97.7127053 C95.8604212,96.8849448 96.1740154,96.0140505 96.0861291,95.184236 C95.3850363,92.7564126 95.1213775,90.2299973 95.4349717,87.7364459 C95.3271113,86.0562771 94.9855533,84.4397821 94.5920625,82.8376651 C94.474215,81.1862522 94.4961865,79.5286773 94.4941891,77.8834264 C94.378339,76.2217435 94.0627474,74.6052485 93.743161,73.0010775 C93.7511506,71.3640426 93.7711248,69.7208456 93.7112023,68.0817567 C93.6752488,66.4406138 93.5374272,64.8117948 93.401603,63.1891378 C93.6193212,61.5746969 93.8789852,59.9438239 93.9448999,58.294465 C94.0647448,56.6327821 93.9029542,55.0142331 93.7251842,53.4080081 C94.1925794,51.3807139 94.272476,50.6289513 94.2165484,48.5420912 C94.5101684,46.4675551 95.2212483,43.1339193 95.7046228,41.3695366 C95.6926383,43.312617 96.9470151,46.3648553 97.4863172,48.4188515 C97.8338675,51.335526 98.9843787,52.6254356 99.5516446,55.4558423 C99.9251613,57.8795578 100.450481,60.2888953 101.013753,62.6900168 C101.764781,65.0664903 102.891323,67.2724822 103.500535,69.7085216 C103.72824,70.5034182 103.536488,71.4112845 103.766191,72.208235 C103.995894,73.0031315 104.615092,73.6994362 104.846793,74.4984407 C105.376108,77.6677568 105.414058,78.8755065 107.015986,81.6894812 C107.37552,84.2097345 108.45013,86.5040482 109.141235,88.9503577 C109.806375,92.2757775 110.323705,95.7798949 111.977565,98.7294334 C112.127371,101.319523 113.249919,103.669294 113.887094,106.191601 C114.436383,107.828636 114.91776,109.484157 115.327231,111.164326 C116.058285,112.741795 116.69546,114.362398 117.074969,116.100079 C117.310664,116.938109 117.080961,118.673736 117.372584,118.903784 C117.680186,119.148209 119.517808,118.760004 120.41265,118.81957 C124.301617,119.454255 127.936913,119.341285 131.84985,119.9657 C132.744692,120.039644 134.428513,119.994456 134.606283,119.826028 C134.915882,118.088347 134.454479,116.658766 134.104932,114.865627"
                id="Fill-1"></path>
            <path
                d="M203.624834,126.427966 C202.655743,123.397671 203.117404,121.95323 202.277658,118.933036 C201.238921,113.086587 199.909655,107.27448 198.727643,101.399748 C198.285881,98.8644012 198.021222,96.2846099 196.958605,93.9108787 C196.779512,93.092699 196.938706,91.4684607 196.662107,91.2300775 C196.411377,91.0118963 194.757755,91.3573499 193.925969,91.2785622 C193.032495,91.1916938 192.17086,90.7533111 191.339074,90.6725032 C190.44759,90.5856347 189.589935,90.9028056 188.752179,90.8199776 C187.01896,90.4947259 185.321559,90.1997771 183.58237,90.0624038 C180.951697,90.3371505 178.472258,89.5876575 175.821686,89.3331127 C174.110356,89.3290723 172.401015,89.2361433 170.641927,88.9755379 C169.810141,88.89473 168.35153,88.8462453 168.080901,88.6119025 C167.828182,88.3937212 167.852061,86.9472603 167.684908,86.1472624 C167.505815,85.2947393 167.310803,84.4745394 167.14365,83.6765617 C166.964557,82.8240386 166.419319,82.0442427 166.252166,81.2482851 C166.075063,80.3998025 166.194458,79.5472794 166.031285,78.7513219 C165.718868,76.2119345 165.285065,73.7351732 164.379652,71.4018459 C164.361743,68.9008423 163.927941,66.4665052 163.315046,64.0139863 C163.181721,63.2119681 162.797667,61.8341939 162.929001,61.6988407 C163.008598,61.6160127 164.562725,61.4624777 165.388541,61.5251038 C170.596159,62.686717 175.704281,62.4059096 180.977566,62.8846963 C181.801393,62.9493425 183.433126,63.3008568 183.568441,63.1614632 C183.646047,63.0806553 183.152547,61.5291442 183.043102,60.7816714 C182.907787,59.115009 182.692876,57.4968314 182.434187,55.9816838 C182.505824,54.2988599 182.557562,52.7554295 182.394388,51.1877568 C182.083961,49.4160442 182.121769,48.1897847 182.286933,46.385749 C182.235195,45.6544378 181.940687,44.866561 181.849151,43.9857552 C181.771544,43.2584844 181.819302,41.7655589 181.576532,41.5473777 C181.36361,41.3574792 179.769685,41.2685905 178.951829,41.2241462 C176.315186,41.4665698 173.817838,41.0079851 171.217014,41.0726314 C169.495734,40.7271778 167.846091,40.6100064 166.051184,40.7433394 C165.227358,40.6968748 164.373682,40.3938453 163.468269,40.3453606 C162.650413,40.3009163 161.124145,40.6564709 160.885355,40.44233 C160.686363,40.2645527 160.787849,38.8544553 160.688353,38.1231441 C160.075458,35.0039602 160.079437,31.9595237 159.008861,28.9676122 C158.893446,28.2403414 159.02478,27.4524646 158.897426,26.6504465 C158.78201,25.927216 158.165135,24.3797453 158.29448,24.2403517 C160.978881,23.8464133 163.048396,24.8726733 166.057154,24.7130778 C168.160498,24.4464118 169.048002,24.4464118 171.123488,24.8241886 C173.069628,24.6342901 174.283479,24.7352999 176.187831,25.1393393 C178.732938,24.7777241 181.208397,25.3716619 183.809221,25.5191363 C184.625088,25.5494392 186.234932,25.5251969 186.370246,25.3797427 C186.467752,25.2767127 185.896646,23.5918685 185.765311,22.7555071 C185.622037,21.8403579 185.914555,20.9191482 185.7872,20.0848069 C185.351408,18.3231953 184.838009,16.6343108 184.521612,14.9131031 C184.509672,12.2282616 184.163426,9.6747328 183.803251,7.03231539 C183.769422,6.17777215 184.125618,4.67070534 183.926626,4.48282703 C183.777382,4.33939306 182.273003,4.59797825 181.431268,4.59393786 C177.972788,4.41009995 174.474511,3.876768 171.109558,4.50100881 C166.759595,4.60807924 162.521068,4.41212015 158.222843,4 C155.653858,4.36969601 153.051044,4.51110979 150.470119,4.01212118 C146.486301,4.5696955 143.885477,4.58585707 140.015085,4.09898964 C139.899669,4.21616106 140.482716,5.75555102 140.536443,6.54140757 C140.739415,8.92725999 140.413069,11.2929104 141.033923,13.618157 C140.608081,15.9737064 140.960296,18.3676396 141.390119,20.7514718 C141.346341,22.4302554 141.587121,23.9130798 142.052762,25.5009545 C142.235834,27.1049908 142.249764,28.7070068 142.267673,30.3070027 C142.57611,31.8948774 142.775102,33.4867925 142.868628,35.1029499 C143.499433,38.28678 144.30734,41.4645496 144.570009,44.7130261 C144.808799,48.8483689 145.507261,52.8624999 146.544009,56.8483482 C146.311188,61.0119738 148.056347,64.9796403 148.607555,69.0947812 C148.746849,69.9149811 148.426472,70.7755849 148.567756,71.5957848 C148.709041,72.4180049 149.262238,73.2018413 149.407502,74.0260816 C149.111004,79.060412 151.297925,83.8987833 151.954598,88.9028108 C151.91082,93.1512847 153.590312,97.1694561 154.143509,101.395708 C154.298723,102.230049 154.155449,103.090653 154.310662,103.924994 C154.465876,104.761356 155.007134,105.565394 155.162348,106.401755 C155.536452,110.664371 157.114458,114.731027 157.301511,118.999703 C157.456724,119.840105 157.936295,120.656264 158.091508,121.498686 C158.246722,122.341108 157.952214,123.943124 158.212893,124.175447 C158.459643,124.395648 160.151074,124.185548 161.026639,124.276457 C164.614463,124.813829 168.182387,125.177464 171.762251,125.197666 C173.551189,125.625948 175.304307,125.825948 177.119113,125.765342 C182.35459,127.001702 187.822887,127.296651 193.229497,127.730993 C195.842261,128.381497 198.5585,128.611799 201.290659,128.870384 C202.166223,128.963313 203.847704,129.072404 203.986999,128.935031 C204.068585,128.858263 203.744229,127.262308 203.624834,126.427966"
                id="Fill-3"></path>
            <path
                d="M229.703062,127.52365 C229.50784,126.661954 228.938614,125.83924 228.745447,124.977544 C228.550225,124.115848 228.800931,123.206964 228.607764,122.345268 C227.978944,118.832831 226.974064,115.408616 225.911646,112.023382 C225.930141,109.343918 225.241726,106.730108 224.288221,104.218879 C224.127934,102.413421 223.70872,100.706443 223.08812,99.0138259 C222.946327,97.2083679 222.549718,95.497286 221.937337,93.7985141 C221.758555,92.92656 222.003096,92.0135726 221.822259,91.1416185 C221.643477,90.2696643 221.049591,89.4407949 220.872864,88.5688407 C220.694082,87.6948349 220.881084,86.7859509 220.706411,85.9139967 C219.169295,80.7602346 219.537135,75.1263848 217.286944,70.2003566 C216.859511,68.4236217 216.801972,66.6653518 216.843071,64.8886169 C216.528661,63.1344503 216.269735,61.3741287 216.016974,59.6117554 C215.180602,56.1444553 214.65453,52.6032955 214.153118,49.0703423 C213.542792,47.3777254 213.072205,45.6563853 212.967401,43.8181007 C213.096864,41.1488951 212.794784,38.4571212 212.050885,35.8638269 C211.933752,34.9816145 212.176238,34.0727305 212.063215,33.1884663 C211.950192,32.3062539 211.241228,31.4671262 211.132315,30.5849138 C211.368636,27.9218631 211.087105,25.2218826 210.390471,22.6162784 C210.080171,19.9511761 210.248678,17.2860738 209.776036,14.6394364 C209.537659,11.9579209 208.812256,9.36872987 209.003368,6.67080106 C208.935554,5.78448528 208.641693,4.91047945 208.580044,4.02211202 C208.51634,3.13579624 208.715672,1.71810133 208.497845,1.52524558 C206.999774,0.893335263 204.823562,1.24416859 203.078894,1.48216079 C201.180104,1.31392493 199.431326,1.08003604 197.516095,1 C196.632459,0.995918107 195.717998,1.58269198 194.733668,1.57653701 C193.864417,1.57243369 192.208113,1.1723606 192.027275,1.35495806 C191.875208,2.44849118 192.399225,5.03152721 192.606776,6.43691218 C192.167013,9.86933415 193.048595,13.3530475 193.143123,16.8408643 C194.205542,20.17891 194.139783,23.7282764 194.466523,27.2099382 C194.828197,29.8216974 195.572095,32.341132 195.843351,34.9693045 C195.968704,36.7132129 195.952265,38.4673795 196.048848,40.2071846 C196.86467,42.7143093 197.156476,45.3506884 197.454446,47.9829642 C197.561305,49.759699 197.8901,51.4728325 198.383292,53.1736561 C198.541525,54.9175644 198.699757,56.6614728 198.979233,58.3971745 C199.281313,61.0745868 200.448535,63.477077 200.586218,66.1770574 C201.613702,69.5417747 202.117169,73.1055028 202.295951,76.5994744 C202.456239,77.4673253 203.05629,78.2961947 203.220687,79.1619939 C203.298776,80.9633486 203.658395,82.6682755 204.262556,84.3608925 C204.876991,89.625444 206.333964,94.7340697 207.180611,99.9698981 C207.953279,105.181107 209.960983,110.304094 209.919883,115.5748 C210.879554,118.059357 211.267943,120.734717 212.026226,123.299289 C212.389955,124.801101 212.480374,127.269245 212.950962,128.381243 C214.138733,128.9475 217.122547,129.093168 218.637059,129.097271 C221.631147,129.144459 224.269726,129.932295 227.298749,129.909727 C228.200881,129.991793 229.853075,130.059498 229.986648,129.917934 C230.046242,129.854332 229.898284,128.385346 229.703062,127.52365"
                id="Fill-5"></path>
            <path
                d="M232.585204,0.000181038965 C234.588515,0.00644893106 236.366241,0.0782538047 237.655237,0.122356543 C238.544342,0.173118358 239.445655,-0.00759370388 240.306277,0.0858080361 C241.201486,0.183270721 242.015313,0.847235264 242.865761,0.993429292 C244.643972,1.18632419 246.363181,1.6228758 247.93997,2.32338885 C249.708008,2.82694606 251.221726,3.45436209 252.733409,4.38228808 C253.419057,4.90615001 253.746623,5.90920348 254.371235,6.5081929 C255.819846,7.49094164 257.138245,8.63612819 258.171805,10.1000989 C258.946974,11.6676238 259.697729,13.2899714 260.56242,14.8534353 C261.12396,16.5204533 261.750607,18.1691971 262.468809,19.7874838 C263.380295,22.2910565 263.475919,24.9530061 264.080185,27.5317063 C264.489133,29.2454252 264.828906,30.9956926 264.904185,32.7662647 C264.924531,33.669825 264.401647,34.5327758 264.38537,35.3774524 C264.367059,36.2789823 264.303988,37.1338113 264.244985,37.9744269 C264.395543,39.8790102 264.238882,41.3612552 263.622408,43.1094921 C263.429124,44.8638205 262.995762,46.5003814 262.257214,48.0577539 C261.949994,48.8719734 261.978478,49.8344174 261.614291,50.5897532 C260.700771,52.0252974 259.754697,53.4344454 258.877799,54.8963856 C257.144349,57.6070666 254.049773,60.2304372 252.015207,62.4517742 C251.941962,62.8578687 252.896174,64.2142244 253.276638,65.0365658 C255.296962,68.0132387 256.822887,71.4284936 257.943933,74.8539009 C258.916456,76.3950296 259.736386,77.995042 260.367102,79.7148523 C261.592281,82.0399281 262.74213,84.4055461 263.87662,86.7783158 L265.574332,90.3386603 C266.991986,93.3031274 268.432493,96.2526826 270.012981,99.1221095 C271.581632,102.378988 272.818648,105.788151 274.885768,108.768885 C275.288612,109.572952 275.284543,110.561792 275.689422,111.365859 C275.823703,111.633205 275.990537,111.885886 276.168298,112.133679 L276.712733,112.872169 C276.89072,113.119962 277.058007,113.372643 277.192966,113.639989 C277.597845,114.444056 277.648709,115.4065 278.055622,116.208537 C278.207452,116.508539 278.418506,116.781701 278.644367,117.04826 L279.102669,117.57857 C279.32853,117.84532 279.539584,118.118957 279.691414,118.419721 C280.098327,119.219727 280.061705,120.222781 280.468618,121.020757 C280.875531,121.820763 281.666978,122.444118 282.073891,123.242094 C282.824646,125.839068 284.336329,128.107106 285.695419,130.44215 C286.102332,131.238095 287.015853,132.959936 286.999791,132.982271 C286.928366,133.091916 285.078946,132.657395 284.28343,132.651304 C283.394325,132.645212 282.564221,132.899021 281.760568,132.890899 C279.903009,132.633029 278.509331,132.675669 276.708739,132.963996 C275.886774,132.947753 275.046499,132.602572 274.17367,132.580237 C272.802372,132.785315 270.248991,133.102069 269.046562,132.661456 C268.672202,132.427952 268.558266,130.850275 268.161526,130.050268 C264.710901,123.770017 261.960167,117.156767 258.753691,110.760779 C258.367123,109.954681 257.591953,109.30493 257.209455,108.496802 C256.824922,107.688673 256.861544,106.707955 256.477011,105.899827 C255.089436,103.585088 253.591996,101.321111 252.782238,98.716015 C251.64695,96.1170101 250.212581,94.0662327 249.714112,91.270272 C249.339752,90.4560524 248.418093,89.8631544 248.045768,89.0489349 C247.671407,88.2347154 247.333669,87.4042521 246.959309,86.5900326 C246.586983,85.7737826 246.607329,84.8011862 246.235003,83.9849362 C245.864712,83.1666558 245.225858,82.4600513 244.857602,81.6417708 C244.306234,79.8935339 243.545307,78.2935215 242.595164,76.7239662 C242.228942,75.8914724 242.190285,74.9391808 241.824063,74.106687 C241.459876,73.2741932 240.766089,72.5635278 240.401901,71.7290036 C239.927847,70.1533568 239.545349,68.3096877 238.444649,67.0345509 C238.401923,67.6112051 238.426337,68.6447157 238.589103,69.2619793 C238.812905,70.1107169 239.604351,70.8538699 239.832223,71.7046379 C240.027541,73.436631 240.214721,75.1787765 240.662326,76.8965564 C240.748541,77.2140715 240.912578,77.5167388 241.096177,77.8156942 L241.472199,78.4119552 C241.655989,78.7109105 241.820503,79.0135779 241.907481,79.331093 C242.98987,84.4316402 244.664318,89.4042676 245.758915,94.5149672 C247.972523,100.175925 249.107811,106.157697 250.99182,111.924239 C251.215622,112.756733 250.857538,113.696842 251.077271,114.527305 C251.297005,115.359799 251.661192,116.163866 251.876856,116.99636 C252.599127,121.2502 254.883945,125.173073 254.95719,129.471584 C255.008054,129.690661 255.080616,129.955579 255.158711,130.228334 L255.254045,130.556969 C255.445886,131.212036 255.632344,131.824688 255.58994,131.869572 C255.453624,132.019827 253.71,132.131503 252.81886,132.07871 C251.809715,132.019827 250.859573,131.374136 249.956225,131.319314 C248.98099,131.220497 248.03356,131.193424 247.094796,131.183046 L245.690757,131.17312 C244.288432,131.161952 242.884072,131.126419 241.413081,130.880732 C240.523975,130.813726 238.798663,131.142663 238.493478,130.899006 C237.71017,128.894929 237.327672,125.445156 236.412117,123.156814 C236.224937,120.442072 235.085579,117.979109 234.135437,115.497871 C233.313472,111.114081 232.796692,106.545517 230.798748,102.584065 C230.190413,100.579989 230.090719,99.2459684 230.031716,97.310928 C229.626838,95.5220816 229.059194,93.8002408 228.458997,92.1575885 C228.245367,90.1880301 227.828281,88.6854803 227.095837,86.9616091 C226.487502,84.2793548 226.28201,81.5443082 225.209794,79.1341372 C224.631977,75.4853779 223.954466,72.1249457 222.729658,68.7117213 C222.214912,64.3177785 220.782577,60.0476946 219.449936,55.6963918 C218.837532,53.0994174 217.747004,50.5816313 216.758205,48.0313577 C216.50185,47.1846507 216.766343,46.2546942 216.556783,45.458749 C216.328912,44.6018895 215.671747,43.860767 215.494739,43.0668522 C215.415391,41.3612552 215.370631,39.6576887 215.081722,38.0251887 C214.957614,37.1175675 214.369624,36.3114698 214.302483,35.5480121 C214.219066,34.5957205 214.245516,33.7490134 214.219066,33.0322566 C213.858948,29.9703039 214.190582,28.1510004 214.351313,25.3205216 C214.101061,23.5499495 214.068508,21.8240478 214.219066,20.0900242 C213.913881,15.7468433 213.879294,11.3224435 214.428626,7.08484712 C214.941206,0.998974884 224.715123,0.0279502485 231.977705,0.000360019902 Z M241.20843,34.7048222 C240.391002,34.4716834 239.45347,35.004017 238.589434,35.2041278 C237.773799,35.3945245 236.759184,35.3614965 236.061861,35.9424006 C232.915839,38.3553871 234.048766,43.2940438 237.508493,44.512194 C239.967947,45.2970946 242.814604,43.5874101 244.060465,41.3123641 C244.609002,39.6803926 244.298881,37.8405389 243.12114,36.5777038 C242.534958,35.9016013 242.040199,34.9399038 241.20843,34.7048222 Z M230.265792,35.0672876 C225.156684,32.5995648 221.28833,41.7303372 226.789677,43.3866996 C229.065062,44.1525447 231.776711,42.6267914 232.911402,40.6181798 C233.545787,38.5878 232.475136,35.6134716 230.265792,35.0672876 Z"
                id="Combined-Shape"></path>
            <path
                d="M270.60168,0.0266954904 C271.053469,-0.155538665 272.574422,0.642241969 273.214285,0.994561336 C274.859939,2.04342014 276.051761,2.6407432 278.333191,2.77033193 C279.08549,2.84727524 279.978845,3.29273651 281.060275,3.29071169 C282.072199,3.29071169 283.063681,2.70958722 284.075605,2.68123968 C285.089574,2.65491697 286.126029,3.22794215 287.139998,3.22794215 C288.033353,3.22591732 288.894,3.10645271 289.752602,3.16922225 C290.190421,3.23064191 290.628581,3.2877307 291.066448,3.34396643 L292.378532,3.51359231 C294.125114,3.74562213 295.856856,4.01964831 297.533175,4.55825148 C299.203361,5.25681574 300.902168,5.79946856 302.592797,6.31377384 C303.398247,6.72278827 303.982915,7.57523915 304.74748,8.03892384 C306.425843,8.75976116 307.936574,9.70535394 309.277629,10.9566951 C312.184612,13.1738774 314.715445,15.8587939 316.573705,18.974998 C318.413568,20.9896978 320.001982,23.2210538 321.085457,25.7095624 C323.060242,28.2770392 324.164159,29.6842918 324.832643,32.8693399 C326.349507,35.145242 327.531107,37.6560237 327.845928,40.3449899 C328.359045,42.9975092 329.473184,45.5589115 330.299078,47.9866754 C330.401292,48.4949062 330.554614,49.3898784 330.705892,50.5582018 C330.804018,51.3033371 330.403337,52.2327312 330.515773,53.1924978 C330.836726,54.8042577 331.194477,56.5456062 331.402995,58.2788555 C331.789366,61.666386 331.617646,65.1956541 332.480337,68.5285143 C332.55802,69.3829901 332.302483,70.2799871 332.380166,71.1344628 C332.455805,71.9950129 332.979144,72.8029177 333.050694,73.6533437 C332.923948,77.08947 332.864664,80.5640679 333.24899,83.9758962 C333.304186,84.887067 333.933828,85.6949717 333.970625,86.4866779 C334.0156,87.4464445 333.520881,88.3474911 333.535191,89.0926263 C333.555634,90.269049 334.064663,91.1680709 333.993112,91.672252 C333.864322,92.5732987 333.328718,93.4136006 333.195839,94.2761756 C333.142687,96.1167406 332.795158,97.8378409 332.2248,99.5366682 C331.979485,102.233734 331.552228,104.894352 330.613899,107.392985 C330.401292,108.292007 330.50964,109.223426 330.288856,110.059678 C328.861941,114.325982 327.107939,118.505219 325.237412,122.530569 C323.7737,125.96872 321.112032,128.756903 317.565187,129.955598 C315.338953,131.624053 312.685463,132.460306 309.850031,132.452206 C309.600043,132.485182 309.349221,132.538158 309.096659,132.598572 L308.332845,132.789567 C307.947422,132.883659 307.556044,132.966222 307.155655,132.994859 C306.274565,133.055604 305.334191,132.557497 304.395862,132.581795 C302.329083,132.913866 300.387006,132.745806 298.80268,131.77389 C294.957368,130.066964 295.380536,125.375447 292.816995,122.453626 C290.273897,117.762109 285.631311,114.40495 283.26811,109.618267 C282.705084,108.487786 282.081789,107.381727 281.448596,106.279414 L280.904609,105.33501 L280.362824,104.389548 C278.747817,101.548681 277.257682,98.6544734 276.748865,95.3554068 C276.350228,93.0167351 276.147843,92.5145788 275.209513,90.337893 C275.01735,89.5117649 275.182937,88.5965445 275.000996,87.7137212 C274.068799,85.2657091 273.490264,82.6617855 273.578169,79.9890179 C273.455511,79.1466911 273.009856,78.3165133 272.895375,77.4296404 C272.784984,76.5812392 273.018033,75.6822173 272.915818,74.7912948 C272.729788,71.2721508 271.826211,67.8522231 271.732174,64.3108061 C272.036773,60.653974 271.356024,57.0558619 271.36829,53.4030795 C271.672889,49.7644709 271.460283,46.0975147 271.629959,42.4467571 C272.752275,38.9235635 272.057216,35.133093 272.541713,31.4782858 C272.390435,29.2611036 272.494694,28.1008795 272.942394,25.9727895 C272.89742,23.1663835 273.16931,20.3417541 272.596909,17.6548127 C273.024166,13.9473601 271.799635,10.9303724 271.161816,7.27354039 C270.470846,5.75694725 269.906621,4.10064127 270.012925,2.43826081 C270.008836,1.51696591 270.335923,0.134011159 270.60168,0.0266954904 Z M294.066136,23.4705882 C293.162653,23.4705882 292.408701,24.8745078 291.670489,25.6562587 C290.885056,26.4905304 289.828894,26.9127163 289.36456,28.3812768 C288.897078,29.8599374 289.163086,32.0052073 289.163086,33.8595932 C289.163086,35.711959 289.289007,37.3219215 289.756489,38.8005821 C290.521459,41.584181 291.657897,43.8607528 294.066136,43.5617886 C301.146046,43.8647928 300.65338,23.7877327 294.066136,23.4705882 Z M308.924543,23.4705882 C307.521788,23.4705882 306.382416,24.3079173 305.508377,26.4371256 C304.73774,28.3118728 303.684211,30.6368203 303.684211,33.3662957 C303.684211,36.0979459 304.692867,38.4816153 305.463504,40.3563625 C306.337544,42.4855707 307.521788,43.5882353 308.924543,43.5882353 C314.761876,43.0575644 314.416552,30.443256 312.66067,26.0086741 C311.786631,23.8794658 310.327298,23.4705882 308.924543,23.4705882 Z"
                id="Combined-Shape"></path>
            <path
                d="M71.6748698,147.439646 C71.9091547,143.112454 70.8171835,138.718968 68.6943589,134.97436 C67.5616425,132.561659 65.565128,130.767703 62.9778083,129.889809 C55.1730665,127.444966 46.2315337,130.279537 40.074935,135.446454 C39.3435588,136.004931 38.7344182,136.718094 38.0071164,137.334829 C37.3022246,137.931475 36.2469241,138.178571 35.5461068,138.827449 C34.8676993,139.458247 34.3522726,140.273864 33.6779396,140.948858 C32.1764793,142.172284 31.0376511,143.608654 30.0618037,145.249934 C29.4465513,145.949034 28.4136607,146.356843 27.8065573,147.086077 C25.427038,151.101888 21.8007158,154.292037 19.8856917,158.593113 C17.7750906,161.630585 15.2101807,164.489264 14.0244956,167.992802 C13.5661122,168.79034 12.63101,169.417119 12.1889246,170.216666 C11.744802,171.02023 11.6612744,171.944328 11.2375244,172.745883 C9.63827551,174.995862 8.65224183,177.591374 7.25671895,179.945816 C5.99769248,182.332401 5.41707347,184.919877 4.54512633,187.416952 C3.69966357,189.012026 3.11904456,190.639243 2.8440145,192.370924 C2.41007819,194.188987 1.72352168,195.725803 0.99621998,197.320877 C0.325961548,200.748078 0.37485578,203.990458 0,207.439756 C0.49912862,209.910716 0.507277658,212.512254 0.12427284,215.053525 C0.142608177,215.89124 0.62340146,216.66668 0.658034874,217.520466 C0.694705548,218.358182 0.340222365,219.262191 0.397265636,220.107942 C0.965661085,222.229351 1.08382215,222.817962 1.11234378,225.092047 C1.70314909,227.552962 1.6420313,230.098251 2.42026449,232.520996 C3.13126812,234.987937 3.15775249,237.541262 4.28843161,239.869588 C5.42522251,242.193897 6.04862397,244.719097 7.76399661,246.7039 C8.23867812,247.433134 8.97005434,247.981566 9.50585363,248.65656 C10.049802,249.343607 10.3126085,250.233554 10.9217491,250.856317 C13.6700124,253.174599 16.5649584,255.637522 20.225914,256.302471 C21.0937866,256.587736 21.8434982,257.288846 22.7847122,257.479692 C23.685181,257.662503 24.6793637,257.644423 25.6490993,257.736833 C26.5658661,257.823216 27.5213409,258 28.5033001,258 C29.3956198,258 30.2777533,257.411389 31.1659985,257.322997 C32.0542437,257.232596 32.9750851,257.46563 33.8511067,257.284828 C35.548144,256.706262 37.2798147,256.181937 38.9951874,255.6777 C39.808054,255.31007 40.380524,254.51655 41.1485709,254.054501 C41.910506,253.594461 43.3508486,252.903396 43.4221527,252.933529 C43.4221527,252.933529 43.7583005,254.450256 43.7318161,255.101143 C43.7012572,255.854484 43.1613834,256.995545 43.3773329,257.286837 C43.6645866,257.676566 44.7097008,257.451568 46.0889256,257.451568 C49.8598932,257.302908 53.3456445,257.821207 57.1003141,257.640405 C58.4754644,257.640405 59.5348394,257.955804 59.8933971,257.50179 C60.5636555,255.213642 60.0747132,251.730192 60.0686014,249.178877 C60.4454945,246.470866 60.6329224,243.720669 60.3904885,240.968462 C60.7734933,238.660225 60.7571952,237.804429 60.4475317,235.508245 C60.771456,230.064099 61.2094669,224.629998 61.1259392,219.161746 C61.4233791,217.251272 61.3724476,215.628073 61.0831568,213.733671 C61.1157529,212.837697 61.7085955,211.879447 61.7900859,211.019634 C61.8430546,210.479237 61.4233791,209.892635 61.4437517,209.336167 C61.4885714,208.044438 61.979551,208.034394 62.0243707,206.744674 C62.0712277,205.454954 61.5048695,205.469016 61.5517265,204.181305 C61.5965462,202.893593 62.2056868,202.879531 62.2505066,201.593829 C62.2953263,200.310135 61.8634272,200.32018 61.9102842,199.036487 C61.9367686,198.21886 61.3765222,197.807034 60.5249476,197.831141 C59.1559091,197.86931 59.1497973,197.871319 57.7766843,197.835158 C56.4117203,197.798998 56.4157949,197.945648 55.0447191,197.991853 C53.0135712,197.9798 51.6282346,198.009934 49.5726396,198.148548 C48.2056384,198.20078 48.2219364,197.79498 46.8549352,197.853239 C45.4899712,197.911497 45.4818222,198.084263 44.1148209,198.146539 C42.7518942,198.208816 42.7396707,198.49609 41.3747067,198.562384 C40.0097427,198.628678 40.0077054,198.666847 38.6407042,198.737159 C37.273703,198.80948 37.2981501,198.269083 35.9311488,198.345422 C34.5661849,198.42176 34.551924,198.737159 33.1849228,198.817515 C32.3476091,198.865729 31.4756619,199.506571 31.4410285,200.300091 C31.0295021,204.759871 31.115067,209.155366 30.6933542,213.605101 C30.6342737,214.934999 30.911341,214.920937 30.8522605,216.250835 C30.7911427,217.578725 31.0335766,217.56868 30.9744961,218.896569 C30.9133783,220.228477 30.5038891,220.244548 30.4427713,221.574446 C30.6200129,223.914826 33.4416175,223.121307 35.0816116,223.135369 C36.4363892,223.089164 36.4486128,222.838051 37.8033905,222.793855 C39.1540936,222.749659 40.2684747,222.850104 40.4070083,223.145414 C40.4803497,223.308136 39.659334,224.519508 39.2213232,225.244725 C37.8095023,227.661443 35.6846404,229.776825 33.225668,230.976144 C32.2498206,231.42614 31.3391655,232.179481 30.2777533,232.209615 C29.3609864,232.235731 28.6234984,231.588862 27.7902592,231.275472 C24.8362327,230.50606 22.9884381,227.898495 21.9372122,225.10611 C20.9797001,223.454786 20.0547842,221.713061 19.3967493,219.870891 C19.2378431,218.042783 19.2154332,216.045926 19.0993094,214.151524 C18.7163046,210.664057 18.7224164,206.865208 18.8405775,203.440017 C18.8405775,199.771748 18.6674104,196.424904 20.2238768,192.965561 C20.6231797,191.414682 20.9776628,189.568494 21.4686424,187.929224 C22.2957699,186.456693 22.9965872,184.897779 23.5588709,183.266544 C25.4087026,180.231081 27.6639491,177.306108 29.1165152,174.089844 C31.0356139,171.821785 33.0504637,169.527609 35.2201452,167.564905 C36.5076933,165.827198 38.1558364,164.226096 40.0565997,163.40847 C41.1302355,162.864055 42.232393,163.064946 43.1878678,162.998652 C44.0720385,162.938385 45.0275133,162.536603 45.6936972,162.89218 C47.4253679,163.898644 47.7472549,165.728761 47.9693162,167.717582 C49.3200194,170.562198 48.7373631,173.402797 48.3197249,176.526651 C47.7859629,179.112118 47.5088956,181.842227 47.2460891,184.465863 C47.174785,185.731476 45.6794364,188.533906 47.7798511,188.682565 C49.2487153,188.614262 49.2670507,188.17632 50.7359149,188.112035 C52.2047791,188.04775 52.1986673,188.216498 53.6675316,188.15824 C55.1343585,188.099981 55.122135,188.417389 56.5889619,188.365157 C58.0557889,188.312926 58.0578261,188.274756 59.5246531,188.226543 C60.9914801,188.180338 61.0016664,187.883019 62.4684933,187.840832 C64.654473,187.923197 64.0290342,185.711387 64.4385234,184.317204 C65.3104706,181.731737 66.5104165,179.240689 66.9830608,176.516607 C68.0342868,171.209067 69.6253866,165.999964 70.6949479,160.692424 C70.7234695,158.916548 70.7438421,157.132636 71.0005368,155.356759 C71.1492568,153.267493 71.4405849,152.134468 71.9967568,150.075335 C72.037502,149.177353 71.6809816,148.303477 71.6748698,147.439646"
                id="Fill-11"></path>
            <path
                d="M144.380275,131.875531 C142.297373,131.195315 140.714036,130.478441 139.238045,129.541617 C138.509338,129.230021 137.677416,129.168924 136.535845,128.682182 C135.51194,128.083429 132.599179,126.586547 131.434901,126.505084 C131.230533,126.572291 130.547242,127.761651 130.15502,128.527403 C129.785506,129.24835 129.740091,130.150552 129.368513,130.920377 C129.011385,131.657617 128.297129,132.246187 127.940001,133.020085 C126.697278,136.127898 125.192386,139.180723 124.306791,142.422949 C122.731712,145.445225 121.327971,148.597842 120.489856,151.909312 C119.792115,153.49784 119.280162,155.131172 118.883812,156.795053 C118.592742,157.615793 117.845457,158.277679 117.564709,159.082126 C116.972248,160.75619 116.689436,162.485242 116.437588,164.169489 C114.311335,167.456519 113.59295,172.148787 111.891947,176.452068 C111.053832,179.447869 111.233428,179.555807 110.510915,181.716612 C109.994834,183.96499 109.420952,185.266361 107.800458,186.596244 C106.384332,188.443417 104.790674,188.702062 102.670613,188.180699 C101.772632,188.021846 100.752856,188.038139 99.7661094,187.757092 C98.8639999,187.500483 98.0423991,186.785646 97.0618453,186.586061 C96.1308352,186.39666 95.0883517,186.797865 94.083026,186.793792 C92.8361745,186.789719 92.2375206,186.146161 91.787498,185.541299 C90.5385821,184.11977 91.347797,182.34795 92.074439,180.506887 C93.4719862,176.340056 94.809668,171.902361 96.5189281,167.727384 C97.2662133,165.169447 98.4408136,162.701119 99.0167599,160.041353 C100.306962,157.67078 100.905616,155.008978 101.225586,152.339029 C101.491884,151.51218 102.183433,150.791232 102.453859,149.927725 C102.716028,149.100876 102.670613,148.168125 102.936911,147.306654 C103.822506,142.748801 106.63205,139.408819 106.51232,134.620833 C107.001564,133.229853 108.126621,130.904085 108.058498,129.731018 C107.913995,129.498849 106.153127,129.211692 105.356298,128.991742 C104.202341,128.674036 103.405512,128.095649 102.676806,127.898101 C101.423761,127.555957 100.562938,127.682224 99.7991386,127.47653 C98.2240596,126.97146 96.3620395,126.307537 94.2853298,125.822832 C93.4885008,125.615101 91.7214396,124.867679 91.4138554,125.020422 C90.633541,127.975491 90.1773254,129.631226 88.8850587,132.679978 C88.5919248,133.521083 87.9664346,134.258323 87.6794936,135.093318 C87.388424,135.93646 87.5019618,136.895686 87.2191494,137.732718 C86.5048934,139.392526 86.0383562,141.084919 85.7142574,142.836373 C84.8059549,144.428974 84.0111903,145.956405 83.5260742,147.773029 C83.2535834,148.62839 83.5343315,149.624275 83.270098,150.473527 C83.0038002,151.330925 82.3535383,152.086494 82.0934335,152.939818 C80.0064021,159.73383 78.4333874,164.112465 77.2216293,171.144755 C76.9945537,172.022519 76.3339701,172.810673 76.1130874,173.684363 C75.8942691,174.562127 76.1853388,175.535609 75.9706491,176.411336 C75.2997439,178.134278 74.917844,179.869439 74.7939845,181.702356 C74.5916808,182.584193 74.0859215,183.417152 73.891875,184.298988 C72.878292,189.679618 71.0637514,194.862699 71.022465,200.35534 C70.3742673,202.26361 70.0997122,203.701431 70.0770047,205.731896 C69.2450822,209.293864 68.8157028,212.941369 68.0374527,216.51963 C67.6679388,218.342364 67.6225237,220.148805 67.7339972,221.977649 C67.554401,223.800383 67.2509454,225.608861 66.9371682,227.413265 C66.7059639,231.987411 66.6357769,236.573776 65.7852755,241.099044 C65.6263226,244.783207 65.7728895,248.463297 65.1143703,252.110801 C65.0730838,253.02726 65.3703464,253.947791 65.3352529,254.874433 C65.3001594,255.790891 64.8315579,257.560674 65.0648265,257.882453 C65.3517675,258.281621 66.5036602,257.409968 67.835149,257.407931 C69.8210285,257.381455 71.1731606,257.416077 73.1569758,257.521979 C74.484336,257.521979 74.4884646,257.35498 75.8158248,257.35498 C77.7748681,257.399785 79.1208072,257.495504 81.1211369,257.619735 C82.4464328,257.619735 83.5033666,258.324389 83.856366,257.815246 C84.1845935,257.336651 83.914167,255.520027 83.926553,254.872396 C83.9802254,252.163752 83.926553,253.652488 83.9306816,252.123021 C83.779986,249.909265 84.0111903,246.504112 83.6994774,243.854529 C84.1329854,242.127514 84.4034118,240.308854 84.3187745,238.349669 C84.4323123,235.649172 84.2341372,232.889614 84.1598216,230.111726 C84.1907864,229.233963 84.8142122,228.321577 84.8451771,227.37457 C84.8761419,226.49477 84.5334642,225.582385 84.5664934,224.641488 C84.5995225,221.922661 85.0660597,219.207908 84.8018263,216.450386 C84.781183,213.639914 85.0474808,210.668552 87.4090672,208.668636 C88.8396436,207.450765 90.6541842,206.414148 92.4934967,205.843907 C93.4079922,205.64636 94.3906103,206.088296 95.3814857,206.155503 C96.2939168,206.218637 97.3653009,205.847981 98.3107612,206.184015 C99.8301035,206.831646 101.677673,208.542368 102.943104,209.407912 C103.884435,209.972043 104.654428,210.242908 105.156059,210.917014 C106.254279,212.187836 106.287308,214.157204 106.241893,216.114351 C107.226576,220.507242 105.795999,225.26468 106.347174,229.830679 C105.70104,232.496555 106.101519,235.300917 105.944631,238.1175 C105.651497,240.872985 105.715491,243.701786 106.210928,246.449125 C105.711362,249.180171 105.800128,252.015082 106.025139,254.831665 C106.018946,255.74405 105.523509,257.399785 105.773292,257.737856 C106.076747,258.153317 107.150196,257.499577 108.483749,257.499577 C111.262329,257.424224 113.663137,257.393675 116.464425,257.448662 C117.793849,257.448662 117.795913,257.338687 119.125338,257.338687 C120.452698,257.338687 120.44857,257.593259 121.77593,257.593259 C123.10329,257.593259 124.0632,258.002611 124.399685,257.558637 C125.363724,253.391807 123.964113,248.210762 124.921959,243.793432 C125.753882,238.370035 124.4162,232.714468 126.11101,227.417339 C126.185325,226.511063 125.722917,225.55591 125.803425,224.65778 C125.883934,223.753541 126.523874,222.912436 126.61264,222.016344 C126.982154,219.323992 126.872745,216.625532 127.23813,213.93929 C126.953254,210.320298 128.456082,206.923292 128.763666,203.324665 C129.180659,201.556919 129.316905,199.793245 129.327226,198.009206 C130.761931,191.150024 131.631012,184.11977 133.554961,177.325758 C134.70479,174.35236 134.333211,172.706808 135.538776,169.755812 C136.025957,168.085821 136.362442,166.385281 136.659704,164.680669 C136.88678,163.851783 137.565942,163.157311 137.799211,162.326389 C138.191433,159.780671 139.050191,157.336782 139.828441,154.868454 C140.07616,154.053824 140.008037,153.127183 140.261949,152.30848 C140.513797,151.49385 141.122772,150.799379 141.380813,149.982712 C142.101262,148.292356 142.404717,146.817876 142.609085,144.997179 C142.873319,144.192732 143.505002,143.514553 143.773364,142.703996 C144.002504,140.166424 145.030537,137.781596 145.852138,135.339743 C146.130822,134.543443 147.111376,133.299096 146.989581,133.038415 C146.859528,132.763477 145.123432,132.197309 144.380275,131.875531"
                id="Fill-13"></path>
            <path
                d="M184.47772,134 C189.575402,134.596084 195.527656,135.557575 198.708007,140.115981 C200.088009,141.32652 201.031804,142.782026 201.565168,144.539656 C202.776636,147.718088 203.775948,151.098616 204,154.460773 C203.799741,155.793795 203.774956,157.014542 203.7757,158.225847 L203.779399,159.437814 C203.780134,160.248772 203.77,161.070768 203.704568,161.934273 C203.664913,162.789612 203.379395,163.579627 203.315947,164.388014 C203.250516,165.23927 203.694655,166.161975 203.607413,166.964238 C202.885687,169.31591 202.562497,171.794148 201.908186,174.151945 C201.78922,175.817712 201.600857,177.471232 201.144822,179.04922 C200.908873,179.86169 200.244648,180.488395 200.002751,181.243706 C199.195766,183.828096 199.156111,185.918471 197.879212,188.296681 C197.50447,190.099222 197.056366,191.336299 196.374295,192.961239 C195.892484,194.608635 195.805242,196.200913 196.035243,197.883011 C196.035243,198.381109 195.553432,199.220117 195.654552,200.389829 C196.408002,202.66597 196.566623,205.39938 196.475416,207.973563 C196.695503,209.610752 196.768865,211.30714 196.61421,213.021901 C196.596365,213.836413 196.086795,214.628469 196.043174,215.487891 C196.001536,216.302402 196.269209,217.16999 196.201795,218.021246 C195.892484,219.674765 195.809208,221.342575 195.836967,223.036922 C195.472138,224.661862 195.212396,226.317423 195.033948,227.99748 C194.871361,228.807909 194.264636,229.528517 194.072308,230.355277 C193.838342,232.098617 193.346617,233.701102 192.638771,235.254594 C192.377046,236.089519 192.521788,237.032637 192.238253,237.816528 C191.938855,238.641246 191.232992,239.292447 190.909802,240.060007 C190.564801,240.872477 190.701612,241.860506 190.330835,242.611735 C188.526521,245.657477 186.837207,248.786916 184.208064,251.14267 C182.907372,252.447114 181.438145,253.486177 179.849952,254.337433 C178.301415,255.533683 176.675549,256.099146 174.789942,256.362485 C170.653899,258.185439 165.746562,258.371204 161.313105,257.485245 C158.719652,256.878954 156.181716,255.948084 154.074039,254.223116 C153.338434,253.769929 152.32326,253.663777 151.613431,253.096273 C146.989628,249.042088 144.229623,243.185363 141.864187,237.477659 C140.926341,233.69906 139.687114,231.54132 138.979268,227.24421 C138.822629,226.394995 139.221165,225.443711 139.080389,224.551627 C138.590646,221.950906 138.525215,219.270572 137.821334,216.704554 C137.744007,215.847174 137.40892,214.979587 137.347454,214.087503 C137.285988,213.226039 137.662713,212.338038 137.613144,211.445954 C137.567541,210.584491 137.309782,209.710779 137.276075,208.818695 C136.669349,203.511102 137.202712,198.295371 137.543748,192.973488 C138.434008,190.534036 138.723491,187.833287 139.893321,185.436705 C140.619012,182.0031 142.137808,178.887951 143.829105,175.848333 C144.334709,173.664054 144.540917,173.010812 145.754367,171.057209 C146.133075,170.295774 146.311524,169.417979 146.710059,168.654503 C147.104629,167.901233 147.935406,167.392928 148.349804,166.643741 C148.758253,165.900678 148.74239,164.900401 149.170667,164.163462 C149.330527,163.887875 149.557306,163.653914 149.80165,163.430897 L150.299138,162.990365 C150.544969,162.768305 150.775466,162.536736 150.941274,162.264977 C152.059552,159.98067 153.44352,157.837219 155.063438,155.893823 C155.55318,155.205877 155.604732,154.195393 156.106371,153.52582 C158.350858,151.027168 160.234482,148.222309 162.657418,145.87472 C164.709577,144.458001 166.523805,142.65546 168.548206,141.171375 C169.212431,140.64674 169.694242,139.924091 170.366399,139.452532 C171.062349,138.964641 171.978385,138.811538 172.682266,138.382847 C173.409939,137.939867 173.86994,137.123315 174.605545,136.7477 C177.022533,135.906651 179.435555,134.912498 181.993318,134.732856 C182.85582,134.589959 183.613235,134.030621 184.47772,134 Z M175.069581,159.934578 C169.338527,159.690541 165.208982,165.609434 168.093375,170.384154 C170.330037,173.60464 175.467862,174.06871 179.014659,172.80452 C181.215686,171.578335 182.760597,169.370001 182.666267,166.895628 C182.666267,165.653441 183.079222,164.215224 182.353931,163.225074 C181.634929,162.240926 179.999881,161.958883 178.781979,161.398799 C177.639542,160.87672 176.467757,159.934578 175.069581,159.934578 Z M162.274682,164.544047 C157.958815,160.099332 150.439285,168.797823 155.363134,172.553499 C157.417305,174.232097 160.870647,173.363742 162.746477,171.600467 C163.680338,170.51793 163.72087,168.983781 163.792207,167.780038 C163.873271,166.411923 163.318791,165.382516 162.274682,164.544047 Z"
                id="Combined-Shape"></path>
            <path
                d="M248.653573,224.559393 C248.559323,229.254398 248.5132,233.943237 247.19971,238.492294 C246.796639,241.154304 245.685688,243.592254 244.913637,246.091871 C244.165649,247.337569 243.461779,248.587378 242.773952,249.818686 C242.338796,250.420979 241.518617,250.766321 241.045359,251.294611 C240.544027,251.853736 240.411676,252.673923 239.866226,253.154935 C236.9204,254.922757 233.952515,256.898195 230.505356,257.521044 C227.677844,257.62588 228.141074,257.551878 225.24137,258 C223.615049,257.841718 221.990734,257.726604 220.384466,257.605324 C217.041585,257.095533 214.316344,254.939202 211.370518,253.500277 C210.744855,252.980209 210.405955,252.174411 209.820399,251.547451 C208.587123,250.420979 207.440075,249.134169 206.529656,247.652077 C206.106532,246.938781 206.150649,245.999369 205.769637,245.20796 C204.658685,242.878958 203.112578,240.813074 202.581166,238.188064 C201.752965,234.790146 201.754971,231.254503 201.375964,227.757916 C201.153372,226.495774 200.838536,223.626147 201.097223,222.699069 C201.301767,222.507897 202.930093,222.795682 203.840512,222.83885 C204.867239,222.888184 205.823781,222.616844 206.746232,222.662068 C210.275609,223.26436 214.823692,223.254082 218.218712,223.486366 C218.423256,223.691927 218.214702,225.149352 218.343043,225.985984 C218.48141,226.888395 218.625794,227.799029 218.902529,228.613049 C220.179923,231.079777 222.093006,234.068629 224.942577,234.387248 C226.392429,234.249522 227.619689,233.367667 228.650428,232.232972 C229.227962,231.51351 230.122338,230.870105 230.503351,229.936859 C230.840246,229.106394 230.581558,228.02309 230.776075,227.048732 C231.694515,223.807041 231.163104,219.958945 229.219941,217.200321 C228.104979,215.500335 226.649111,214.46842 224.693916,214.382085 C222.997409,214.503365 221.361061,214.306027 219.76482,213.670845 C216.618461,212.425147 213.450043,210.694326 211.432683,207.878145 C210.03898,206.823619 208.843805,205.590255 207.861194,204.128719 C205.54504,201.721604 204.099199,198.786198 203.204823,195.534228 C202.523011,193.024332 203.33918,190.452769 203.565782,187.844204 C203.812437,186.189441 204.129279,184.485343 204.606547,182.818246 C204.853202,182.033004 205.609211,181.410155 205.901989,180.587913 C206.740216,178.822147 206.974839,177.888901 207.375905,175.999799 C208.575091,172.848554 210.391918,170.034429 212.040297,167.115468 C212.922641,164.691907 214.615138,162.788416 215.924617,160.613584 C216.379827,159.892066 216.498141,158.967043 216.959366,158.272248 C217.432624,157.563064 218.224728,157.086163 218.701996,156.405757 C220.195966,153.425128 222.018809,150.586335 224.732017,148.686955 C225.891097,147.486481 226.895766,146.199671 227.916478,144.982752 C229.839587,143.626051 231.744649,142.246739 233.932461,141.506721 C235.396351,140.357637 236.583505,139.812901 238.434422,139.535394 C241.185732,138.637094 244.141585,138.931046 246.784607,139.956794 C248.994479,140.174688 250.71505,140.853038 252.33335,142.468745 C253.743095,143.523271 254.954313,144.801858 255.866737,146.372342 C256.518469,147.895546 257.116056,149.515364 257.669527,151.155738 C257.852012,151.934813 257.623404,152.796112 257.733697,153.651245 C258.064577,155.266951 258.072598,156.868269 257.837975,158.539477 C258.060566,160.169573 258.008427,161.750334 257.615383,163.400986 C257.416856,165.769045 256.811247,168.135048 256.939588,170.492829 C256.404165,171.931754 255.786524,173.376845 255.349363,174.887716 C255.154846,175.633901 255.469682,176.523979 255.257118,177.272219 C254.835999,178.787202 254.192288,180.20557 253.516493,181.597216 C253.277859,182.333123 253.171577,183.739158 252.928932,183.903606 C252.590032,184.133834 250.901546,184.045443 250.005164,184.01872 C246.086753,183.564431 242.447083,183.566487 238.522657,183.013529 C237.626275,182.947749 235.556777,183.323925 235.476564,183.081364 C235.368276,182.756578 235.933778,181.451268 236.120274,180.762639 C236.320807,180.01851 236.89433,179.405939 237.01465,178.702922 C237.050746,177.183828 236.888315,175.638012 236.657702,174.178532 C236.517329,173.111672 236.70984,172.170204 236.312785,171.526799 C235.334185,170.08993 232.747313,170.102264 231.213237,170.864894 C227.495359,172.583381 225.612356,176.700761 223.530826,180.141846 C223.175883,181.465657 222.656503,183.180033 222.357709,184.487398 C222.14715,185.426811 221.7521,186.234664 221.740068,187.024017 C221.72202,188.010708 222.143139,188.861729 222.419874,189.62847 C223.007435,191.492906 224.150472,192.374761 226.03147,192.391206 C228.121021,192.670768 230.058168,193.392286 231.877,194.397478 C234.937131,195.266999 236.936442,197.84473 239.188426,199.999006 C241.047364,202.073113 243.110847,203.857379 244.380219,206.437165 C245.078073,207.970648 245.918306,209.458907 246.762549,210.953333 C247.316019,212.396369 247.592755,213.921629 247.71508,215.485945 C247.863474,216.221852 248.190342,216.95776 248.304646,217.730668 C248.412934,218.470686 248.098097,219.251816 248.176305,220.022669 C248.601434,221.492428 248.807983,222.982742 248.653573,224.559393"
                id="Fill-17"></path>
            <path
                d="M315.444843,170.799357 C315.069259,171.063081 313.286293,170.547996 312.338894,170.589203 C309.211844,171.007452 306.348547,171.41746 303.265808,170.894133 C302.307859,170.920918 301.33092,171.450425 300.26114,171.47515 C299.317961,171.495753 297.585635,171.11871 297.254362,171.347408 C296.423014,172.264261 295.906059,174.662499 295.488275,176.016143 C295.330023,177.664417 295.078931,179.281785 294.517666,180.87855 C294.047131,183.334478 293.336055,185.732716 292.392876,188.011454 C292.112243,190.469442 291.913901,192.945973 291.042463,195.263858 C291.126864,197.742449 290.293406,200.076817 290.038094,202.536865 C289.947363,203.346579 290.495968,204.211923 290.415787,205.017517 C290.284966,206.66167 289.922042,208.252254 289.548569,209.826355 C289.69838,211.6683 289.6182,212.852997 289.227846,214.666098 C289.299587,216.295829 289.181425,217.894654 288.928223,219.4976 C289.071704,221.100546 289.329127,222.715854 289.426188,224.333222 C289.419858,225.134696 288.835382,225.925867 288.835382,226.7294 C288.835382,227.528813 288.829052,228.330286 288.835382,229.131759 C289.059044,230.716162 289.272156,232.312927 289.278486,233.934416 C289.044274,235.508517 288.879693,237.094981 288.995744,238.71647 C289.018954,239.509701 289.525359,240.304993 289.550679,241.102346 C289.575999,241.895577 289.145555,242.690869 289.172985,243.488222 C289.430408,247.45232 289.609759,251.43084 289.605539,255.394938 C289.63508,256.184049 290.031763,257.558297 289.898832,257.683978 C289.6815,257.890012 287.856333,257.500607 286.889944,257.500607 C284.731394,257.521211 282.773295,257.735486 280.722356,257.960064 C278.620776,258.081624 276.660568,257.914736 274.531557,257.607745 C273.567278,257.607745 271.60074,257.982727 271.406618,257.807598 C271.144976,256.781548 271.320107,254.393612 271.195616,253.042027 C271.170296,252.250856 271.436158,251.459685 271.410838,250.672634 C271.385518,249.879402 270.843243,249.088231 270.817922,248.30118 C270.794712,247.505888 271.415058,246.712657 271.391848,245.923546 C271.098555,243.523247 271.182956,241.085863 270.634351,238.751496 C270.617471,237.952083 271.050025,237.156791 271.035255,236.359439 C270.988834,234.729708 270.703981,233.135003 270.444449,231.554721 C270.440229,230.753248 270.881223,229.960016 270.881223,229.158543 C270.879113,228.35707 270.619581,227.549416 270.623801,226.747943 C271.539549,222.794147 270.364268,218.634317 271.347537,214.703184 C271.60074,211.466387 271.758991,208.198685 271.60496,204.984551 C271.691471,204.178957 272.189435,203.414571 272.286496,202.606917 C272.368787,200.968945 272.62832,199.37424 273.022893,197.783656 C273.143164,196.980123 272.72116,196.098296 272.856202,195.290642 C272.989133,194.489169 273.72764,193.776291 273.875341,192.970697 C274.020933,192.169224 273.641129,191.277096 273.803601,190.471502 C274.012493,188.773781 274.586418,187.26355 275.299605,185.749199 C275.732159,181.655299 277.228163,179.949336 277.485585,176.11916 C277.726128,175.33211 278.390784,174.652197 278.646096,173.858965 C278.899299,173.073975 279.276992,171.458667 279.224242,171.390676 C279.09975,171.23409 277.084682,171.275296 276.137283,171.267055 C272.987023,171.096047 270.163816,171.584348 267.066307,171.17846 C266.108358,171.159917 265.120869,171.481331 264.053199,171.456606 C263.10791,171.436003 261.056971,171.23821 261,171.161978 C261.02743,170.21422 262.367293,167.62231 262.977089,166.520027 C263.285152,165.718554 263.280931,164.834667 263.574224,164.072341 C263.882287,163.268808 264.055309,162.444671 264.348602,161.678224 C264.654554,160.87469 265.447922,160.258648 265.734885,159.492201 C266.036617,158.686607 266.207529,157.86247 266.490272,157.093963 C267.467211,155.056284 267.593812,154.417578 267.857565,152.25834 C268.38085,150.624489 269.087706,149.101896 269.765023,147.581364 C269.997125,146.769589 269.773463,145.846556 269.973915,145.040962 C270.178586,144.227127 270.877003,143.530732 271.054245,142.714836 C271.227266,141.898941 271.227266,140.541175 271.434048,140.384589 C271.689361,140.190917 273.157935,139.980762 274.084233,140.003426 C279.774957,140.835804 285.41082,140.141469 291.099434,140.230064 C292.983681,140.537055 294.853159,140.720425 296.781717,140.572081 C299.045768,140.230064 300.170409,140.230064 302.44712,140.534994 C307.057514,139.630504 311.851479,140.092021 316.584254,139.743823 C318.939036,139.187531 322.764502,138.723954 324.948372,139.193712 C325.214235,140.250667 324.384997,142.749862 324.015744,144.060239 C323.827952,144.882316 323.996753,145.768263 323.777311,146.600641 C323.564199,147.412416 322.964954,148.166501 322.724411,148.996819 C322.502859,151.176661 322.308738,151.889539 321.357119,153.908674 C320.994195,155.598154 320.348529,157.147532 319.515071,158.688667 C319.242879,159.471597 319.204898,160.33282 318.911606,161.154897 C318.635193,161.937827 317.947326,162.636283 317.654034,163.456299 C316.983047,165.605235 316.630674,168.984196 315.444843,170.799357"
                id="Fill-19"></path>
            <path
                d="M357.92972,222.934269 C358.695047,229.695864 357.600899,236.354645 356.064476,242.829972 C355.781805,243.723051 354.962636,244.4105 354.626123,245.231003 C354.343452,245.9245 354.19154,246.630093 353.87618,247.257063 C352.601276,249.045237 351.666731,251.041057 350.376444,252.744559 C348.593886,254.61942 346.405589,255.879408 343.99231,256.578953 C342.405891,257.38736 340.840625,257.629278 339.086911,257.510335 C338.261973,257.595006 337.44665,257.963931 336.589022,257.963931 C330.085667,258.411478 324.357253,254.633532 319.90182,250.002827 C318.873051,248.746872 317.875049,247.418341 317.005884,245.999092 C316.382854,243.729098 315.509843,241.463137 314.515687,239.259672 C313.984958,237.703335 313.698441,236.104664 313.542684,234.457608 C313.015801,232.89724 312.70044,231.318728 312.66775,229.639417 C312.573526,228.833025 312.079333,228.044777 312.017799,227.224273 C311.956265,226.413849 312.063949,224.938152 312.192786,224.803082 C312.388925,224.597452 314.077259,224.831305 314.948347,224.811146 C315.934811,224.78897 316.838589,224.444237 317.723138,224.422062 C321.138265,224.793002 325.491782,223.998706 328.749229,224.430125 C328.941522,224.605516 328.885757,226.030813 329.035746,226.831157 C329.745308,230.240179 331.724005,234.49188 335.514103,234.27617 C336.269816,234.25601 337.119751,234.417289 337.760088,233.995949 C338.304277,233.635088 338.431191,232.814585 338.892695,232.161407 C339.421501,231.411463 340.28682,230.75627 340.619487,229.802711 C340.917542,228.956 340.690636,227.919786 340.846393,226.94002 C340.986767,226.059037 341.354047,225.071207 341.302128,223.972498 C341.26367,223.135867 340.886775,222.393986 340.750247,221.666217 C340.623333,219.99497 340.16183,218.523305 339.109986,217.317749 C338.517723,216.571837 338.033144,215.789637 337.342812,215.418697 C335.773699,214.46917 333.887303,215.140491 332.254734,215.257418 C331.470178,215.180811 330.785614,214.620369 330.024133,214.430866 C327.59547,214.453042 325.516781,213.106368 323.590003,211.618575 C321.451703,210.501722 319.824902,208.679277 318.263482,206.830623 C317.048189,205.78433 316.038649,204.734004 315.348317,203.278467 C314.267629,202.181774 313.435,200.958075 313.14656,199.284812 C312.994648,196.905956 313.544607,194.424285 313.644599,191.946646 C314.179174,189.573838 315.006035,187.223205 315.609836,184.802014 C315.711751,182.415094 316.657834,180.181389 317.807747,178.07469 C318.115416,177.298538 318.273096,176.461906 318.603841,175.675674 C318.930739,174.901538 319.697989,174.280616 320.044117,173.498416 C320.386398,172.728312 320.292175,171.780801 320.655609,171.008681 C321.015197,170.238577 321.695915,169.595479 322.070887,168.837471 C322.451627,168.069383 322.513161,167.172272 322.901593,166.420312 C323.751529,164.896231 324.782221,163.487061 325.782145,162.102083 C328.064665,157.511698 330.818304,153.205565 333.979604,149.270373 C334.5411,148.597036 335.360269,148.165616 335.919842,147.554774 C336.481338,146.945948 336.677477,146.050853 337.231281,145.508555 C338.521569,144.490485 339.779166,143.464352 340.986767,142.40193 C345.488351,139.29329 350.874483,137.033376 356.27023,138.414323 C357.166316,138.63608 357.848957,139.220714 358.643128,139.690438 C359.30077,140.079522 360.169936,140.206528 360.735278,140.756891 C361.967877,141.787056 362.712052,143.089379 363.138942,144.728371 C363.429305,145.41582 363.944651,146.052869 364.163865,146.865309 C364.469611,148.429709 364.725361,150.056605 364.95419,151.705676 C365.015724,152.497956 364.533068,153.417243 364.548451,154.274034 C364.88881,155.866658 365.104179,157.487506 364.948421,159.213184 C364.890733,160.031672 364.406155,160.888463 364.315777,161.749287 C364.277318,163.378198 364.021568,164.964774 363.600446,166.549334 C363.47161,167.341614 363.72736,168.164134 363.579294,168.96851 C363.00626,171.349382 362.685131,173.806861 361.812119,176.092982 C361.485221,177.401353 361.175629,179.933423 360.716048,180.911173 C360.381458,181.201474 358.727737,180.80231 357.868186,180.913189 C356.895183,181.03818 356.001019,181.417184 355.128008,181.522015 C351.757109,181.749821 347.215144,182.239704 344.053844,182.79813 C344.051921,181.989722 345.038385,179.381045 345.280674,178.322655 C345.380667,177.544487 345.030693,176.800591 345.038385,176.094998 C345.063383,174.560837 345.030693,172.504538 344.457659,171.35543 C343.915393,170.597421 342.946235,170.591373 341.969386,170.696204 C337.565872,171.101416 335.27566,176.532465 333.331576,180.20558 C331.883608,183.626698 329.699157,187.606242 331.510559,191.329756 C331.848995,192.154292 332.185508,192.940524 332.764311,193.325576 C333.400801,193.750947 334.323809,193.496934 335.223741,193.432423 C336.240972,193.359847 337.219744,193.629989 338.14852,193.750947 C341.080991,193.896098 343.571188,195.468562 345.790251,197.355519 C347.445896,198.305045 348.87848,199.524713 350.201457,200.935899 C351.535972,201.958001 352.430135,203.298627 353.099315,204.905363 C353.514668,205.570636 354.416524,206.028263 354.787649,206.810463 C355.833724,208.925226 356.145239,211.386737 357.00479,213.622459 C357.102859,215.144523 357.131703,216.725051 357.325919,218.301547 C357.422066,219.059556 357.948949,219.783292 358.016252,220.575572 C358.081632,221.339629 357.889338,222.141989 357.92972,222.934269"
                id="Fill-21"></path>
        </g>
    </g>
</svg>